<?xml version="1.0" encoding="utf-8"?>
<svg version="1.1" xmlns:xlink="http://www.w3.org/1999/xlink" width="16px" height="17px" xmlns="http://www.w3.org/2000/svg">
  <g transform="matrix(1 0 0 1 -1273 -616 )">
    <path d="M 6.66666666666667 13.1705729166667  C 6.84722222222222 13.1705729166667  7.00347222222222 13.1004774305556  7.13541666666667 12.9602864583333  L 13.53125 6.16471354166667  C 13.6631944444444 6.02452256944444  13.7291666666667 5.85850694444444  13.7291666666667 5.66666666666667  C 13.7291666666667 5.47482638888889  13.6631944444444 5.30881076388889  13.53125 5.16861979166667  L 12.46875 4.03971354166667  C 12.3368055555556 3.89952256944444  12.1805555555556 3.82942708333333  12 3.82942708333333  C 11.8194444444444 3.82942708333333  11.6631944444444 3.89952256944444  11.53125 4.03971354166667  L 6.66666666666667 9.20833333333333  L 4.46875 6.873046875  C 4.33680555555556 6.73285590277778  4.18055555555556 6.66276041666667  4 6.66276041666667  C 3.81944444444444 6.66276041666667  3.66319444444444 6.73285590277778  3.53125 6.873046875  L 2.46875 8.001953125  C 2.33680555555556 8.14214409722222  2.27083333333333 8.30815972222222  2.27083333333333 8.5  C 2.27083333333333 8.69184027777778  2.33680555555556 8.85785590277778  2.46875 8.998046875  L 6.19791666666667 12.9602864583333  C 6.32986111111111 13.1004774305556  6.48611111111111 13.1705729166667  6.66666666666667 13.1705729166667  Z M 15.1197916666667 0.935221354166667  C 15.7065972222222 1.55870225694444  16 2.30946180555555  16 3.1875  L 16 13.8125  C 16 14.6905381944444  15.7065972222222 15.4412977430556  15.1197916666667 16.0647786458333  C 14.5329861111111 16.6882595486111  13.8263888888889 17  13 17  L 3 17  C 2.17361111111111 17  1.46701388888889 16.6882595486111  0.880208333333333 16.0647786458333  C 0.293402777777778 15.4412977430556  0 14.6905381944444  0 13.8125  L 0 3.1875  C 0 2.30946180555555  0.293402777777778 1.55870225694444  0.880208333333333 0.935221354166667  C 1.46701388888889 0.311740451388888  2.17361111111111 0  3 0  L 13 0  C 13.8263888888889 0  14.5329861111111 0.311740451388888  15.1197916666667 0.935221354166667  Z " fill-rule="nonzero" fill="#02a7f0" stroke="none" transform="matrix(1 0 0 1 1273 616 )" />
  </g>
</svg>