<?xml version="1.0" encoding="utf-8"?>
<svg version="1.1" xmlns:xlink="http://www.w3.org/1999/xlink" width="26px" height="21px" xmlns="http://www.w3.org/2000/svg">
  <g transform="matrix(1 0 0 1 -1471 -536 )">
    <path d="M 25.3872053872054 15.6969696969697  C 25.7957351290685 16.026936026936  26 16.4276094276094  26 16.8989898989899  C 26 17.3703703703704  25.7957351290685 17.7710437710438  25.3872053872054 18.1010101010101  L 22.4107744107744 20.5050505050505  C 22.0022446689113 20.8350168350168  21.5061728395062 21  20.9225589225589 21  C 20.3389450056117 21  19.8428731762065 20.8350168350168  19.4343434343434 20.5050505050505  L 13 15.3080808080808  L 6.56565656565657 20.5050505050505  C 6.15712682379349 20.8350168350168  5.66105499438833 21  5.07744107744108 21  C 4.49382716049383 21  3.99775533108867 20.8350168350168  3.58922558922559 20.5050505050505  L 0.612794612794613 18.1010101010101  C 0.204264870931538 17.7710437710438  0 17.3703703703704  0 16.8989898989899  C 0 16.4276094276094  0.204264870931538 16.026936026936  0.612794612794613 15.6969696969697  L 7.04713804713805 10.5  L 0.612794612794613 5.3030303030303  C 0.204264870931538 4.97306397306397  0 4.57239057239057  0 4.1010101010101  C 0 3.62962962962963  0.204264870931538 3.22895622895623  0.612794612794613 2.8989898989899  L 3.58922558922559 0.494949494949495  C 3.99775533108867 0.164983164983164  4.49382716049383 0  5.07744107744108 0  C 5.66105499438833 0  6.15712682379349 0.164983164983164  6.56565656565657 0.494949494949495  L 13 5.69191919191919  L 19.4343434343434 0.494949494949495  C 19.8428731762065 0.164983164983164  20.3389450056117 0  20.9225589225589 0  C 21.5061728395062 0  22.0022446689113 0.164983164983164  22.4107744107744 0.494949494949495  L 25.3872053872054 2.8989898989899  C 25.7957351290685 3.22895622895623  26 3.62962962962963  26 4.1010101010101  C 26 4.57239057239057  25.7957351290685 4.97306397306397  25.3872053872054 5.3030303030303  L 18.952861952862 10.5  L 25.3872053872054 15.6969696969697  Z " fill-rule="nonzero" fill="#81d3f8" stroke="none" transform="matrix(1 0 0 1 1471 536 )" />
  </g>
</svg>