<?xml version="1.0" encoding="utf-8"?>
<svg version="1.1" xmlns:xlink="http://www.w3.org/1999/xlink" width="21px" height="27px" xmlns="http://www.w3.org/2000/svg">
  <defs>
    <path d="M 0 0  L 1024 0  L 1024 1024  L 0 1024  Z " fill-rule="evenodd" fill="black" id="path4" />
    <clipPath id="clip5">
      <use xlink:href="#path4" />
    </clipPath>
    <defs>
      <style type="text/css"></style>
    </defs>
    <path d="M778.368 984.256H245.632c-40.896 0-74.944-46.912-74.944-103.296V569.664c0-57.856 34.048-103.232 74.944-103.232h532.736c40.896 0 74.944 46.912 74.944 103.232v311.296c-1.152 56.32-34.048 103.296-74.944 103.296zM245.632 560.256c-3.392 0-6.784 4.736-6.784 9.408v311.296c0 4.736 3.392 9.408 6.784 9.408h532.736c3.392 0 6.784-4.672 6.784-9.408V569.664c0-4.672-3.392-9.408-6.784-9.408H245.632z" fill="#172B4D" p-id="4124"></path>
    <path d="M720.064 519.616a46.08 46.08 0 0 1-46.912-46.912V299.008A160.896 160.896 0 0 0 512 137.856a160.896 160.896 0 0 0-161.152 161.152v173.696a46.08 46.08 0 0 1-46.912 46.912 46.08 46.08 0 0 1-46.912-46.912V299.008a255.04 255.04 0 0 1 509.952 0v173.696a47.04 47.04 0 0 1-46.912 46.912z" fill="#172B4D" p-id="4125"></path>
    <filter x="-50.00%" y="-50.00%" width="200.00%" height="200.00%" filterUnits="objectBoundingBox" id="filter6">
      <feColorMatrix type="matrix" values="1 0 0 0 0  0 1 0 0 0  0 0 1 0 0  0 0 0 1 0  " in="SourceGraphic" />
    </filter>
  </defs>
  <g transform="matrix(1 0 0 1 -205 -818 )">
    <g transform="matrix(0.0205078125 0 0 0.0205078125 205 821 )" clip-path="url(#clip5)" filter="url(#filter6)">
      <path d="M778.368 984.256H245.632c-40.896 0-74.944-46.912-74.944-103.296V569.664c0-57.856 34.048-103.232 74.944-103.232h532.736c40.896 0 74.944 46.912 74.944 103.232v311.296c-1.152 56.32-34.048 103.296-74.944 103.296zM245.632 560.256c-3.392 0-6.784 4.736-6.784 9.408v311.296c0 4.736 3.392 9.408 6.784 9.408h532.736c3.392 0 6.784-4.672 6.784-9.408V569.664c0-4.672-3.392-9.408-6.784-9.408H245.632z" fill="#172B4D" p-id="4124"></path>
      <path d="M720.064 519.616a46.08 46.08 0 0 1-46.912-46.912V299.008A160.896 160.896 0 0 0 512 137.856a160.896 160.896 0 0 0-161.152 161.152v173.696a46.08 46.08 0 0 1-46.912 46.912 46.08 46.08 0 0 1-46.912-46.912V299.008a255.04 255.04 0 0 1 509.952 0v173.696a47.04 47.04 0 0 1-46.912 46.912z" fill="#172B4D" p-id="4125"></path>
    </g>
  </g>
</svg>