<?xml version="1.0" encoding="utf-8"?>
<svg version="1.1" xmlns:xlink="http://www.w3.org/1999/xlink" width="17px" height="15px" xmlns="http://www.w3.org/2000/svg">
  <g transform="matrix(1 0 0 1 -518 -785 )">
    <path d="M 526.5 785  C 531.26 785  535 788.3  535 792.5  C 535 796.7  531.26 800  526.5 800  C 521.74 800  518 796.7  518 792.5  C 518 788.3  521.74 785  526.5 785  Z " fill-rule="nonzero" fill="#d9001b" stroke="none" />
    <path d="M 526.5 785.5  C 530.98 785.5  534.5 788.58  534.5 792.5  C 534.5 796.42  530.98 799.5  526.5 799.5  C 522.02 799.5  518.5 796.42  518.5 792.5  C 518.5 788.58  522.02 785.5  526.5 785.5  Z " stroke-width="1" stroke="#797979" fill="none" />
  </g>
</svg>