<?xml version="1.0" encoding="utf-8"?>
<svg version="1.1" xmlns:xlink="http://www.w3.org/1999/xlink" width="21px" height="27px" xmlns="http://www.w3.org/2000/svg">
  <defs>
    <path d="M 0 0  L 1024 0  L 1024 1024  L 0 1024  Z " fill-rule="evenodd" fill="black" id="path1" />
    <clipPath id="clip2">
      <use xlink:href="#path1" />
    </clipPath>
    <defs>
      <style type="text/css"></style>
    </defs>
    <path d="M823.04 970.24a44.992 44.992 0 0 1-45.824-45.824v-131.328c0-102.4-44.288-145.152-145.088-145.152H364.8c-102.4 0-145.152 44.288-145.152 145.152v131.328c0 25.984-19.84 45.824-45.824 45.824A44.992 44.992 0 0 1 128 924.48v-131.328c0-152.768 84.032-236.8 236.8-236.8h267.328c152.704 0 236.8 84.032 236.8 236.8v131.328c0 24.448-19.904 45.824-45.888 45.824zM497.664 518.08a232.064 232.064 0 0 1-232.192-232.192A232.064 232.064 0 0 1 497.664 53.76a232.064 232.064 0 0 1 232.192 232.192 232.064 232.064 0 0 1-232.192 232.192z m0-372.672A140.16 140.16 0 0 0 357.12 285.888a140.16 140.16 0 0 0 140.544 140.544 140.16 140.16 0 0 0 140.544-140.544 140.16 140.16 0 0 0-140.544-140.48z" fill="#172B4D" p-id="4255"></path>
    <filter x="-50.00%" y="-50.00%" width="200.00%" height="200.00%" filterUnits="objectBoundingBox" id="filter3">
      <feColorMatrix type="matrix" values="1 0 0 0 0  0 1 0 0 0  0 0 1 0 0  0 0 0 1 0  " in="SourceGraphic" />
    </filter>
  </defs>
  <g transform="matrix(1 0 0 1 -205 -781 )">
    <g transform="matrix(0.0205078125 0 0 0.0205078125 205 784 )" clip-path="url(#clip2)" filter="url(#filter3)">
      <path d="M823.04 970.24a44.992 44.992 0 0 1-45.824-45.824v-131.328c0-102.4-44.288-145.152-145.088-145.152H364.8c-102.4 0-145.152 44.288-145.152 145.152v131.328c0 25.984-19.84 45.824-45.824 45.824A44.992 44.992 0 0 1 128 924.48v-131.328c0-152.768 84.032-236.8 236.8-236.8h267.328c152.704 0 236.8 84.032 236.8 236.8v131.328c0 24.448-19.904 45.824-45.888 45.824zM497.664 518.08a232.064 232.064 0 0 1-232.192-232.192A232.064 232.064 0 0 1 497.664 53.76a232.064 232.064 0 0 1 232.192 232.192 232.064 232.064 0 0 1-232.192 232.192z m0-372.672A140.16 140.16 0 0 0 357.12 285.888a140.16 140.16 0 0 0 140.544 140.544 140.16 140.16 0 0 0 140.544-140.544 140.16 140.16 0 0 0-140.544-140.48z" fill="#172B4D" p-id="4255"></path>
    </g>
  </g>
</svg>