<?xml version="1.0" encoding="utf-8"?>
<svg version="1.1" xmlns:xlink="http://www.w3.org/1999/xlink" width="1064px" height="32px" xmlns="http://www.w3.org/2000/svg">
  <g transform="matrix(1 0 0 1 -713 -3284 )">
    <path d="M 714 3288  A 3 3 0 0 1 717 3285 L 1773 3285  A 3 3 0 0 1 1776 3288 L 1776 3312  A 3 3 0 0 1 1773 3315 L 717 3315  A 3 3 0 0 1 714 3312 L 714 3288  Z " fill-rule="nonzero" fill="#ffffff" stroke="none" />
    <path d="M 713.5 3288  A 3.5 3.5 0 0 1 717 3284.5 L 1773 3284.5  A 3.5 3.5 0 0 1 1776.5 3288 L 1776.5 3312  A 3.5 3.5 0 0 1 1773 3315.5 L 717 3315.5  A 3.5 3.5 0 0 1 713.5 3312 L 713.5 3288  Z " stroke-width="1" stroke-dasharray="9,4" stroke="#d9d9d9" fill="none" stroke-dashoffset="0.5" />
  </g>
</svg>