<?xml version="1.0" encoding="utf-8"?>
<svg version="1.1" xmlns:xlink="http://www.w3.org/1999/xlink" width="24px" height="25px" xmlns="http://www.w3.org/2000/svg">
  <g transform="matrix(1 0 0 1 -1556 -631 )">
    <path d="M 23.4343434343434 18.6868686868687  C 23.8114478114478 19.0796857463524  24 19.5566778900112  24 20.1178451178451  C 24 20.679012345679  23.8114478114478 21.1560044893378  23.4343434343434 21.5488215488215  L 20.6868686868687 24.4107744107744  C 20.3097643097643 24.8035914702581  19.8518518518519 25  19.3131313131313 25  C 18.7744107744108 25  18.3164983164983 24.8035914702581  17.9393939393939 24.4107744107744  L 12 18.2239057239057  L 6.06060606060606 24.4107744107744  C 5.68350168350168 24.8035914702581  5.22558922558923 25  4.68686868686869 25  C 4.14814814814815 25  3.69023569023569 24.8035914702581  3.31313131313131 24.4107744107744  L 0.565656565656566 21.5488215488215  C 0.188552188552189 21.1560044893378  0 20.679012345679  0 20.1178451178451  C 0 19.5566778900112  0.188552188552189 19.0796857463524  0.565656565656566 18.6868686868687  L 6.50505050505051 12.5  L 0.565656565656566 6.31313131313131  C 0.188552188552189 5.92031425364759  0 5.44332210998878  0 4.88215488215488  C 0 4.32098765432099  0.188552188552189 3.84399551066217  0.565656565656566 3.45117845117845  L 3.31313131313131 0.589225589225589  C 3.69023569023569 0.196408529741862  4.14814814814815 0  4.68686868686869 0  C 5.22558922558923 0  5.68350168350168 0.196408529741862  6.06060606060606 0.589225589225589  L 12 6.77609427609428  L 17.9393939393939 0.589225589225589  C 18.3164983164983 0.196408529741862  18.7744107744108 0  19.3131313131313 0  C 19.8518518518519 0  20.3097643097643 0.196408529741862  20.6868686868687 0.589225589225589  L 23.4343434343434 3.45117845117845  C 23.8114478114478 3.84399551066217  24 4.32098765432099  24 4.88215488215488  C 24 5.44332210998878  23.8114478114478 5.92031425364759  23.4343434343434 6.31313131313131  L 17.4949494949495 12.5  L 23.4343434343434 18.6868686868687  Z " fill-rule="nonzero" fill="#81d3f8" stroke="none" transform="matrix(1 0 0 1 1556 631 )" />
  </g>
</svg>