<?xml version="1.0" encoding="utf-8"?>
<svg version="1.1" xmlns:xlink="http://www.w3.org/1999/xlink" width="17px" height="14px" xmlns="http://www.w3.org/2000/svg">
  <g transform="matrix(1 0 0 1 -702 -538 )">
    <path d="M 17 1.75  C 17 0.783125  16.23925 0  15.3 0  L 1.7 0  C 0.76075 0  0.00849999999999982 0.783125  0 1.75  L 0 12.25  C 0 13.216875  0.76075 14  1.7 14  L 15.3 14  C 16.23925 14  17 13.216875  17 12.25  L 17 1.75  Z M 15.3 1.75  L 15.3 3.5  L 8.5 7.875  L 1.7 3.5  L 1.7 1.75  L 8.5 6.125  L 15.3 1.75  Z " fill-rule="nonzero" fill="#000000" stroke="none" transform="matrix(1 0 0 1 702 538 )" />
  </g>
</svg>