<?xml version="1.0" encoding="utf-8"?>
<svg version="1.1" xmlns:xlink="http://www.w3.org/1999/xlink" width="17px" height="24px" xmlns="http://www.w3.org/2000/svg">
  <g transform="matrix(1 0 0 1 -702 -470 )">
    <path d="M 9.75065104166667 22.659375  C 10.0974392361111 22.365625  10.2708333333333 22.0125  10.2708333333333 21.6  C 10.2708333333333 21.1875  10.0974392361111 20.834375  9.75065104166667 20.540625  C 9.40386284722222 20.246875  8.98697916666667 20.1  8.5 20.1  C 8.01302083333333 20.1  7.59613715277778 20.246875  7.24934895833333 20.540625  C 6.90256076388889 20.834375  6.72916666666667 21.1875  6.72916666666667 21.6  C 6.72916666666667 22.0125  6.90256076388889 22.365625  7.24934895833333 22.659375  C 7.59613715277778 22.953125  8.01302083333333 23.1  8.5 23.1  C 8.98697916666667 23.1  9.40386284722222 22.953125  9.75065104166667 22.659375  Z M 14.6647135416667 19.021875  C 14.8049045138889 18.903125  14.875 18.7625  14.875 18.6  L 14.875 5.4  C 14.875 5.2375  14.8049045138889 5.096875  14.6647135416667 4.978125  C 14.5245225694444 4.859375  14.3585069444444 4.8  14.1666666666667 5  L 2.83333333333333 5  C 2.64149305555556 4.8  2.47547743055556 4.859375  2.33528645833333 4.978125  C 2.19509548611111 5.096875  2.125 5.2375  2.125 5.4  L 2.125 18.6  C 2.125 18.7625  2.19509548611111 18.903125  2.33528645833333 19.021875  C 2.47547743055556 19.140625  2.64149305555556 19.2  2.83333333333333 19  L 14.1666666666667 19  C 14.3585069444444 19.2  14.5245225694444 19.140625  14.6647135416667 19.021875  Z M 10.2708333333333 3  C 10.5069444444444 3  10.625 2.9  10.625 2.7  C 10.625 2.5  10.5069444444444 2.4  10.2708333333333 2.4  L 6.72916666666667 2.4  C 6.49305555555556 2.4  6.375 2.5  6.375 2.7  C 6.375 2.9  6.49305555555556 3  6.72916666666667 3  L 10.2708333333333 3  Z M 16.1588541666667 0.712499999999999  C 16.7196180555556 1.1875  17 1.75  17 2.4  L 17 21.6  C 17 22.25  16.7196180555556 22.8125  16.1588541666667 23.2875  C 15.5980902777778 23.7625  14.9340277777778 24  14.1666666666667 24  L 2.83333333333333 24  C 2.06597222222222 24  1.40190972222222 23.7625  0.841145833333333 23.2875  C 0.280381944444444 22.8125  0 22.25  0 21.6  L 0 2.4  C 0 1.75  0.280381944444444 1.1875  0.841145833333333 0.712499999999999  C 1.40190972222222 0.237499999999997  2.06597222222222 0  2.83333333333333 0  L 14.1666666666667 0  C 14.9340277777778 0  15.5980902777778 0.237499999999997  16.1588541666667 0.712499999999999  Z " fill-rule="nonzero" fill="#000000" stroke="none" transform="matrix(1 0 0 1 702 470 )" />
  </g>
</svg>