<?xml version="1.0" encoding="utf-8"?>
<svg version="1.1" xmlns:xlink="http://www.w3.org/1999/xlink" width="86px" height="81px" xmlns="http://www.w3.org/2000/svg">
  <g transform="matrix(1 0 0 1 -403 -409 )">
    <path d="M 446 409  C 470.08 409  489 426.82  489 449.5  C 489 472.18  470.08 490  446 490  C 421.92 490  403 472.18  403 449.5  C 403 426.82  421.92 409  446 409  Z " fill-rule="nonzero" fill="#80ffff" stroke="none" />
    <path d="M 446 409.5  C 469.8 409.5  488.5 427.1  488.5 449.5  C 488.5 471.9  469.8 489.5  446 489.5  C 422.2 489.5  403.5 471.9  403.5 449.5  C 403.5 427.1  422.2 409.5  446 409.5  Z " stroke-width="1" stroke="#d9001b" fill="none" />
  </g>
</svg>