<?xml version="1.0" encoding="utf-8"?>
<svg version="1.1" xmlns:xlink="http://www.w3.org/1999/xlink" width="16px" height="22px" xmlns="http://www.w3.org/2000/svg">
  <g transform="matrix(1 0 0 1 -704 -534 )">
    <path d="M 6 14.6666666666667  C 6 15.8190476190476  6.9 16.7619047619048  8 16.7619047619048  C 9.1 16.7619047619048  10 15.8190476190476  10 14.6666666666667  C 10 13.5142857142857  9.1 12.5714285714286  8 12.5714285714286  C 6.9 12.5714285714286  6 13.5142857142857  6 14.6666666666667  Z M 16 9.42857142857143  C 16 8.27619047619048  15.1 7.33333333333333  14 7.33333333333333  L 13 7.33333333333333  L 13 5.23809523809524  C 13 2.34666666666667  10.76 0  8 0  C 5.24 0  3 2.34666666666667  3 5.23809523809524  L 3 7.33333333333333  L 2 7.33333333333333  C 0.9 7.33333333333333  0 8.27619047619048  0 9.42857142857143  L 0 19.9047619047619  C 0 21.0571428571429  0.9 22  2 22  L 14 22  C 15.1 22  16 21.0571428571429  16 19.9047619047619  L 16 9.42857142857143  Z M 4.9 7.33333333333333  L 4.9 5.23809523809524  C 4.9 3.44666666666667  6.29 1.99047619047619  8 1.99047619047619  C 9.71 1.99047619047619  11.1 3.44666666666667  11.1 5.23809523809524  L 11.1 7.33333333333333  L 4.9 7.33333333333333  Z M 14 9.42857142857143  L 14 20  L 2 20  L 2 9.42857142857143  L 14 9.42857142857143  Z " fill-rule="nonzero" fill="#000000" stroke="none" transform="matrix(1 0 0 1 704 534 )" />
  </g>
</svg>