<?xml version="1.0" encoding="utf-8"?>
<svg version="1.1" xmlns:xlink="http://www.w3.org/1999/xlink" width="15px" height="18px" xmlns="http://www.w3.org/2000/svg">
  <g transform="matrix(1 0 0 1 -345 -292 )">
    <path d="M 12.5 5.14285714285714  C 12.5 6.12723214285714  12.2428385416667 7.03794642857143  11.728515625 7.875  C 12.0345052083333 7.96875  12.3258463541667 8.09598214285714  12.6025390625 8.25669642857143  C 12.8792317708333 8.41741071428572  13.1689453125 8.66183035714286  13.4716796875 8.98995535714286  C 13.7744140625 9.31808035714286  14.033203125 9.70479910714286  14.248046875 10.1501116071429  C 14.462890625 10.5954241071429  14.6419270833333 11.1713169642857  14.78515625 11.8777901785714  C 14.9283854166667 12.5842633928571  15 13.3761160714286  15 14.2533482142857  C 15 15.2845982142857  14.6744791666667 16.1668526785714  14.0234375 16.9001116071429  C 13.3723958333333 17.6333705357143  12.587890625 18  11.669921875 18  L 3.330078125 18  C 2.412109375 18  1.62760416666667 17.6333705357143  0.9765625 16.9001116071429  C 0.325520833333333 16.1668526785714  0 15.2845982142857  0 14.2533482142857  C 0 13.3761160714286  0.0716145833333333 12.5842633928571  0.21484375 11.8777901785714  C 0.358072916666667 11.1713169642857  0.537109375 10.5954241071429  0.751953125 10.1501116071429  C 0.966796875 9.70479910714286  1.2255859375 9.31808035714286  1.5283203125 8.98995535714286  C 1.8310546875 8.66183035714286  2.12076822916667 8.41741071428572  2.3974609375 8.25669642857143  C 2.67415364583333 8.09598214285714  2.96549479166667 7.96875  3.271484375 7.875  C 2.75716145833333 7.03794642857143  2.5 6.12723214285714  2.5 5.14285714285714  C 2.5 4.44642857142857  2.6318359375 3.78180803571429  2.8955078125 3.14899553571429  C 3.1591796875 2.51618303571429  3.515625 1.96875  3.96484375 1.50669642857143  C 4.4140625 1.04464285714286  4.9462890625 0.678013392857143  5.5615234375 0.406808035714285  C 6.1767578125 0.135602678571428  6.82291666666667 0  7.5 0  C 8.17708333333333 0  8.8232421875 0.135602678571428  9.4384765625 0.406808035714285  C 10.0537109375 0.678013392857143  10.5859375 1.04464285714286  11.03515625 1.50669642857143  C 11.484375 1.96875  11.8408203125 2.51618303571429  12.1044921875 3.14899553571429  C 12.3681640625 3.78180803571429  12.5 4.44642857142857  12.5 5.14285714285714  Z M 10.1513671875 2.41573660714286  C 9.4189453125 1.66238839285714  8.53515625 1.28571428571429  7.5 1.28571428571429  C 6.46484375 1.28571428571429  5.5810546875 1.66238839285714  4.8486328125 2.41573660714286  C 4.1162109375 3.16908482142857  3.75 4.078125  3.75 5.14285714285714  C 3.75 6.20758928571428  4.1162109375 7.11662946428572  4.8486328125 7.86997767857143  C 5.5810546875 8.62332589285714  6.46484375 9  7.5 9  C 8.53515625 9  9.4189453125 8.62332589285714  10.1513671875 7.86997767857143  C 10.8837890625 7.11662946428572  11.25 6.20758928571428  11.25 5.14285714285714  C 11.25 4.078125  10.8837890625 3.16908482142857  10.1513671875 2.41573660714286  Z M 3.330078125 16.7142857142857  L 11.669921875 16.7142857142857  C 12.2428385416667 16.7142857142857  12.7327473958333 16.4748883928571  13.1396484375 15.99609375  C 13.5465494791667 15.5172991071429  13.75 14.9363839285714  13.75 14.2533482142857  C 13.75 12.6529017857143  13.4944661458333 11.390625  12.9833984375 10.4665178571429  C 12.4723307291667 9.54241071428572  11.73828125 9.05691964285714  10.78125 9.01004464285714  C 9.83723958333333 9.86049107142857  8.74348958333333 10.2857142857143  7.5 10.2857142857143  C 6.25651041666667 10.2857142857143  5.16276041666667 9.86049107142857  4.21875 9.01004464285714  C 3.26171875 9.05691964285714  2.52766927083333 9.54241071428572  2.0166015625 10.4665178571429  C 1.50553385416667 11.390625  1.25 12.6529017857143  1.25 14.2533482142857  C 1.25 14.9363839285714  1.45345052083333 15.5172991071429  1.8603515625 15.99609375  C 2.26725260416667 16.4748883928571  2.75716145833333 16.7142857142857  3.330078125 16.7142857142857  Z " fill-rule="nonzero" fill="#d9001b" stroke="none" transform="matrix(1 0 0 1 345 292 )" />
  </g>
</svg>