<?xml version="1.0" encoding="utf-8"?>
<svg version="1.1" xmlns:xlink="http://www.w3.org/1999/xlink" width="22px" height="23px" xmlns="http://www.w3.org/2000/svg">
  <g transform="matrix(1 0 0 1 -606 -107 )">
    <path d="M 17.859375 10.6015625  C 17.953125 10.6995738636364  18 10.8248106060606  18 10.9772727272727  L 18 12.0227272727273  C 18 12.1751893939394  17.953125 12.3004261363636  17.859375 12.3984375  C 17.765625 12.4964488636364  17.6458333333333 12.5454545454545  17.5 12.5454545454545  L 12 12.5454545454545  L 12 18.2954545454545  C 12 18.4479166666667  11.953125 18.5731534090909  11.859375 18.6711647727273  C 11.765625 18.7691761363636  11.6458333333333 18.8181818181818  11.5 18.8181818181818  L 10.5 18.8181818181818  C 10.3541666666667 18.8181818181818  10.234375 18.7691761363636  10.140625 18.6711647727273  C 10.046875 18.5731534090909  10 18.4479166666667  10 18.2954545454545  L 10 12.5454545454545  L 4.5 12.5454545454545  C 4.35416666666667 12.5454545454545  4.234375 12.4964488636364  4.140625 12.3984375  C 4.046875 12.3004261363636  4 12.1751893939394  4 12.0227272727273  L 4 10.9772727272727  C 4 10.8248106060606  4.046875 10.6995738636364  4.140625 10.6015625  C 4.234375 10.5035511363636  4.35416666666667 10.4545454545455  4.5 10.4545454545455  L 10 10.4545454545455  L 10 4.70454545454546  C 10 4.55208333333333  10.046875 4.42684659090909  10.140625 4.32883522727273  C 10.234375 4.23082386363636  10.3541666666667 4.18181818181818  10.5 4.18181818181818  L 11.5 4.18181818181818  C 11.6458333333333 4.18181818181818  11.765625 4.23082386363636  11.859375 4.32883522727273  C 11.953125 4.42684659090909  12 4.55208333333333  12 4.70454545454546  L 12 10.4545454545455  L 17.5 10.4545454545455  C 17.6458333333333 10.4545454545455  17.765625 10.5035511363636  17.859375 10.6015625  Z M 19.265625 20.1413352272727  C 19.7552083333333 19.6294981060606  20 19.0142045454545  20 18.2954545454545  L 20 4.70454545454546  C 20 3.98579545454546  19.7552083333333 3.37050189393939  19.265625 2.85866477272727  C 18.7760416666667 2.34682765151515  18.1875 2.09090909090909  17.5 2  L 4.5 2  C 3.8125 2.09090909090909  3.22395833333333 2.34682765151515  2.734375 2.85866477272727  C 2.24479166666667 3.37050189393939  2 3.98579545454546  2 4.70454545454546  L 2 18.2954545454545  C 2 19.0142045454545  2.24479166666667 19.6294981060606  2.734375 20.1413352272727  C 3.22395833333333 20.6531723484848  3.8125 20.9090909090909  4.5 21  L 17.5 21  C 18.1875 20.9090909090909  18.7760416666667 20.6531723484848  19.265625 20.1413352272727  Z M 20.6796875 1.38032670454546  C 21.5598958333333 2.30054450757576  22 3.40861742424242  22 4.70454545454546  L 22 18.2954545454545  C 22 19.5913825757576  21.5598958333333 20.6994554924242  20.6796875 21.6196732954545  C 19.7994791666667 22.5398910984848  18.7395833333333 23  17.5 23  L 4.5 23  C 3.26041666666667 23  2.20052083333333 22.5398910984848  1.3203125 21.6196732954545  C 0.440104166666667 20.6994554924242  0 19.5913825757576  0 18.2954545454545  L 0 4.70454545454546  C 0 3.40861742424242  0.440104166666667 2.30054450757576  1.3203125 1.38032670454546  C 2.20052083333333 0.460108901515149  3.26041666666667 0  4.5 0  L 17.5 0  C 18.7395833333333 0  19.7994791666667 0.460108901515149  20.6796875 1.38032670454546  Z " fill-rule="nonzero" fill="#02a7f0" stroke="none" fill-opacity="0.717647058823529" transform="matrix(1 0 0 1 606 107 )" />
  </g>
</svg>