<?xml version="1.0" encoding="utf-8"?>
<svg version="1.1" xmlns:xlink="http://www.w3.org/1999/xlink" width="52px" height="56px" xmlns="http://www.w3.org/2000/svg">
  <g transform="matrix(1 0 0 1 -275 -182 )">
    <path d="M 52 11.2  C 52 8.10600000000001  49.4144444444444 5.60000000000001  46.2222222222222 6  L 34.1322222222222 6  C 32.9477777777778 2.35199999999999  29.77 0  26 0  C 22.23 0  19.0522222222222 2.35199999999999  17.8677777777778 6  L 5.77777777777778 6  C 2.58555555555556 5.60000000000001  0 8.10600000000001  0 11.2  L 0 50.4  C 0 53.494  2.58555555555556 56  5.77777777777778 56  L 46.2222222222222 56  C 49.4144444444444 56  52 53.494  52 50.4  L 52 11.2  Z M 23.1111111111111 8.4  C 23.1111111111111 6.84600000000001  24.4111111111111 5.60000000000001  26 5.60000000000001  C 27.5888888888889 5.60000000000001  28.8888888888889 6.84600000000001  28.8888888888889 8.4  C 28.8888888888889 9.954  27.5888888888889 11.2  26 11.2  C 24.4111111111111 11.2  23.1111111111111 9.954  23.1111111111111 8.4  Z M 43.3333333333333 22.4  L 20.2222222222222 44.8  L 8.66666666666666 33.6  L 12.7544444444444 29.638  L 20.2222222222222 36.876  L 39.2455555555556 18.438  L 43.3333333333333 22.4  Z " fill-rule="nonzero" fill="#d9001b" stroke="none" transform="matrix(1 0 0 1 275 182 )" />
  </g>
</svg>