<?xml version="1.0" encoding="utf-8"?>
<svg version="1.1" xmlns:xlink="http://www.w3.org/1999/xlink" width="53px" height="51px" xmlns="http://www.w3.org/2000/svg">
  <g transform="matrix(1 0 0 1 -416 -188 )">
    <path d="M 53 25.5  C 53 11.41125  41.128 0  26.48675 0  C 11.8455 0  0 11.41125  0 25.5  C 0 39.58875  11.8455 51  26.48675 51  C 41.128 51  53 39.58875  53 25.5  Z M 47.7 25.5  C 47.7 36.771  38.213 45.9  26.5 45.9  C 14.787 45.9  5.3 36.771  5.3 25.5  C 5.3 14.229  14.787 5.1  26.5 5.1  C 38.213 5.1  47.7 14.229  47.7 25.5  Z M 27 26.1375  L 27 12.75  L 24 12.75  L 24 28.05  L 37.74925 36.0825  L 39.75 32.946  L 27 26.1375  Z " fill-rule="nonzero" fill="#0000bf" stroke="none" transform="matrix(1 0 0 1 416 188 )" />
  </g>
</svg>