<?xml version="1.0" encoding="utf-8"?>
<svg version="1.1" xmlns:xlink="http://www.w3.org/1999/xlink" width="42px" height="50px" xmlns="http://www.w3.org/2000/svg">
  <g transform="matrix(1 0 0 1 -561 -188 )">
    <path d="M 6.286 10.7117353011188  C 6.286 14.4251368721733  8.512 17.6981671030707  11.886 19.6143775291597  L 11.886 10.7117353011188  C 11.886 7.42680314210902  15.022 4.76077124494168  18.886 4.76077124494168  C 22.75 4.76077124494168  25.886 7.42680314210902  25.886 10.7117353011188  L 25.886 19.6143775291597  C 29.26 17.6981671030707  31.486 14.4251368721733  31.486 10.7117353011188  C 31.486 4.79647702927874  25.844 0  18.886 0  C 11.928 0  6.286 4.79647702927874  6.286 10.7117353011188  Z M 42 33.9204951202095  C 41.986 32.4446560342776  40.922 31.1711497262557  39.424 30.6355629611997  L 26.712 25.2558914544156  C 26.236 25.0892644608427  25.732 24.9940490359438  25.186 24.9940490359438  L 23 24.9940490359438  L 23 10.7117353011188  C 23.086 8.73601523446798  21.21 7.14115686741252  18.886 7.14115686741252  C 16.562 7.14115686741252  14.686 8.73601523446798  15 10.7117353011188  L 15 36.2651749583433  L 5.096 34.5631992382766  C 4.886 34.5274934539395  4.662 34.5036895977148  4.438 34.5036895977148  C 3.57 34.5036895977148  2.786 34.813139728636  2.212 35.2892168531302  L 0 37.1935253511069  L 13.832 48.9526303261128  C 14.602 49.5953344441799  15.652 50  16.8 50  L 35.826 50  C 37.94 50  39.55 48.6788859795287  39.844 46.9531064032373  L 41.958 34.408474172816  C 41.986 34.241847179243  42 34.0871221137824  42 33.9204951202095  Z " fill-rule="nonzero" fill="#a30014" stroke="none" transform="matrix(1 0 0 1 561 188 )" />
  </g>
</svg>