<?xml version="1.0" encoding="utf-8"?>
<svg version="1.1" xmlns:xlink="http://www.w3.org/1999/xlink" width="19px" height="21px" xmlns="http://www.w3.org/2000/svg">
  <g transform="matrix(1 0 0 1 -414 -374 )">
    <path d="M 5.74338942307692 18.9566761363636  C 5.81189903846154 18.8671875  5.84615384615385 18.7528409090909  5.84615384615385 18.6136363636364  L 5.84615384615385 15.75  C 5.84615384615385 15.6107954545454  5.81189903846154 15.4964488636364  5.74338942307692 15.4069602272727  C 5.67487980769231 15.3174715909091  5.58733974358974 15.2727272727273  5.48076923076923 15.2727272727273  L 1.82692307692308 15.2727272727273  C 1.72035256410256 15.2727272727273  1.6328125 15.3174715909091  1.56430288461538 15.4069602272727  C 1.49579326923077 15.4964488636364  1.46153846153846 15.6107954545454  1.46153846153846 15.75  L 1.46153846153846 18.6136363636364  C 1.46153846153846 18.7528409090909  1.49579326923077 18.8671875  1.56430288461538 18.9566761363636  C 1.6328125 19.0461647727273  1.72035256410256 19.0909090909091  1.82692307692308 19.0909090909091  L 5.48076923076923 19.0909090909091  C 5.58733974358974 19.0909090909091  5.67487980769231 19.0461647727273  5.74338942307692 18.9566761363636  Z M 5.74338942307692 13.2294034090909  C 5.81189903846154 13.1399147727273  5.84615384615385 13.0255681818182  5.84615384615385 12.8863636363636  L 5.84615384615385 10.0227272727273  C 5.84615384615385 9.88352272727273  5.81189903846154 9.76917613636364  5.74338942307692 9.6796875  C 5.67487980769231 9.59019886363636  5.58733974358974 9.54545454545455  5.48076923076923 9.54545454545455  L 1.82692307692308 9.54545454545455  C 1.72035256410256 9.54545454545455  1.6328125 9.59019886363636  1.56430288461538 9.6796875  C 1.49579326923077 9.76917613636364  1.46153846153846 9.88352272727273  1.46153846153846 10.0227272727273  L 1.46153846153846 12.8863636363636  C 1.46153846153846 13.0255681818182  1.49579326923077 13.1399147727273  1.56430288461538 13.2294034090909  C 1.6328125 13.3188920454545  1.72035256410256 13.3636363636364  1.82692307692308 13.3636363636364  L 5.48076923076923 13.3636363636364  C 5.58733974358974 13.3636363636364  5.67487980769231 13.3188920454545  5.74338942307692 13.2294034090909  Z M 11.5895432692308 18.9566761363636  C 11.6580528846154 18.8671875  11.6923076923077 18.7528409090909  11.6923076923077 18.6136363636364  L 11.6923076923077 15.75  C 11.6923076923077 15.6107954545454  11.6580528846154 15.4964488636364  11.5895432692308 15.4069602272727  C 11.5210336538462 15.3174715909091  11.4334935897436 15.2727272727273  11.3269230769231 15.2727272727273  L 7.67307692307692 15.2727272727273  C 7.56650641025641 15.2727272727273  7.47896634615385 15.3174715909091  7.41045673076923 15.4069602272727  C 7.34194711538462 15.4964488636364  7.30769230769231 15.6107954545454  7.30769230769231 15.75  L 7.30769230769231 18.6136363636364  C 7.30769230769231 18.7528409090909  7.34194711538462 18.8671875  7.41045673076923 18.9566761363636  C 7.47896634615385 19.0461647727273  7.56650641025641 19.0909090909091  7.67307692307692 19.0909090909091  L 11.3269230769231 19.0909090909091  C 11.4334935897436 19.0909090909091  11.5210336538462 19.0461647727273  11.5895432692308 18.9566761363636  Z M 5.74338942307692 7.50213068181818  C 5.81189903846154 7.41264204545455  5.84615384615385 7.29829545454545  5.84615384615385 7.15909090909091  L 5.84615384615385 4.29545454545455  C 5.84615384615385 4.15625  5.81189903846154 4.04190340909091  5.74338942307692 3.95241477272727  C 5.67487980769231 3.86292613636364  5.58733974358974 3.81818181818182  5.48076923076923 3.81818181818182  L 1.82692307692308 3.81818181818182  C 1.72035256410256 3.81818181818182  1.6328125 3.86292613636364  1.56430288461538 3.95241477272727  C 1.49579326923077 4.04190340909091  1.46153846153846 4.15625  1.46153846153846 4.29545454545455  L 1.46153846153846 7.15909090909091  C 1.46153846153846 7.29829545454545  1.49579326923077 7.41264204545455  1.56430288461538 7.50213068181818  C 1.6328125 7.59161931818182  1.72035256410256 7.63636363636364  1.82692307692308 7.63636363636364  L 5.48076923076923 7.63636363636364  C 5.58733974358974 7.63636363636364  5.67487980769231 7.59161931818182  5.74338942307692 7.50213068181818  Z M 11.5895432692308 13.2294034090909  C 11.6580528846154 13.1399147727273  11.6923076923077 13.0255681818182  11.6923076923077 12.8863636363636  L 11.6923076923077 10.0227272727273  C 11.6923076923077 9.88352272727273  11.6580528846154 9.76917613636364  11.5895432692308 9.6796875  C 11.5210336538462 9.59019886363636  11.4334935897436 9.54545454545455  11.3269230769231 9.54545454545455  L 7.67307692307692 9.54545454545455  C 7.56650641025641 9.54545454545455  7.47896634615385 9.59019886363636  7.41045673076923 9.6796875  C 7.34194711538462 9.76917613636364  7.30769230769231 9.88352272727273  7.30769230769231 10.0227272727273  L 7.30769230769231 12.8863636363636  C 7.30769230769231 13.0255681818182  7.34194711538462 13.1399147727273  7.41045673076923 13.2294034090909  C 7.47896634615385 13.3188920454545  7.56650641025641 13.3636363636364  7.67307692307692 13.3636363636364  L 11.3269230769231 13.3636363636364  C 11.4334935897436 13.3636363636364  11.5210336538462 13.3188920454545  11.5895432692308 13.2294034090909  Z M 17.4356971153846 18.9566761363636  C 17.5042067307692 18.8671875  17.5384615384615 18.7528409090909  17.5384615384615 18.6136363636364  L 17.5384615384615 15.75  C 17.5384615384615 15.6107954545454  17.5042067307692 15.4964488636364  17.4356971153846 15.4069602272727  C 17.3671875 15.3174715909091  17.2796474358974 15.2727272727273  17.1730769230769 15.2727272727273  L 13.5192307692308 15.2727272727273  C 13.4126602564103 15.2727272727273  13.3251201923077 15.3174715909091  13.2566105769231 15.4069602272727  C 13.1881009615385 15.4964488636364  13.1538461538462 15.6107954545454  13.1538461538462 15.75  L 13.1538461538462 18.6136363636364  C 13.1538461538462 18.7528409090909  13.1881009615385 18.8671875  13.2566105769231 18.9566761363636  C 13.3251201923077 19.0461647727273  13.4126602564103 19.0909090909091  13.5192307692308 19.0909090909091  L 17.1730769230769 19.0909090909091  C 17.2796474358974 19.0909090909091  17.3671875 19.0461647727273  17.4356971153846 18.9566761363636  Z M 11.5895432692308 7.50213068181818  C 11.6580528846154 7.41264204545455  11.6923076923077 7.29829545454545  11.6923076923077 7.15909090909091  L 11.6923076923077 4.29545454545455  C 11.6923076923077 4.15625  11.6580528846154 4.04190340909091  11.5895432692308 3.95241477272727  C 11.5210336538462 3.86292613636364  11.4334935897436 3.81818181818182  11.3269230769231 3.81818181818182  L 7.67307692307692 3.81818181818182  C 7.56650641025641 3.81818181818182  7.47896634615385 3.86292613636364  7.41045673076923 3.95241477272727  C 7.34194711538462 4.04190340909091  7.30769230769231 4.15625  7.30769230769231 4.29545454545455  L 7.30769230769231 7.15909090909091  C 7.30769230769231 7.29829545454545  7.34194711538462 7.41264204545455  7.41045673076923 7.50213068181818  C 7.47896634615385 7.59161931818182  7.56650641025641 7.63636363636364  7.67307692307692 7.63636363636364  L 11.3269230769231 7.63636363636364  C 11.4334935897436 7.63636363636364  11.5210336538462 7.59161931818182  11.5895432692308 7.50213068181818  Z M 17.4356971153846 13.2294034090909  C 17.5042067307692 13.1399147727273  17.5384615384615 13.0255681818182  17.5384615384615 12.8863636363636  L 17.5384615384615 10.0227272727273  C 17.5384615384615 9.88352272727273  17.5042067307692 9.76917613636364  17.4356971153846 9.6796875  C 17.3671875 9.59019886363636  17.2796474358974 9.54545454545455  17.1730769230769 9.54545454545455  L 13.5192307692308 9.54545454545455  C 13.4126602564103 9.54545454545455  13.3251201923077 9.59019886363636  13.2566105769231 9.6796875  C 13.1881009615385 9.76917613636364  13.1538461538462 9.88352272727273  13.1538461538462 10.0227272727273  L 13.1538461538462 12.8863636363636  C 13.1538461538462 13.0255681818182  13.1881009615385 13.1399147727273  13.2566105769231 13.2294034090909  C 13.3251201923077 13.3188920454545  13.4126602564103 13.3636363636364  13.5192307692308 13.3636363636364  L 17.1730769230769 13.3636363636364  C 17.2796474358974 13.3636363636364  17.3671875 13.3188920454545  17.4356971153846 13.2294034090909  Z M 17.4356971153846 7.50213068181818  C 17.5042067307692 7.41264204545455  17.5384615384615 7.29829545454545  17.5384615384615 7.15909090909091  L 17.5384615384615 4.29545454545455  C 17.5384615384615 4.15625  17.5042067307692 4.04190340909091  17.4356971153846 3.95241477272727  C 17.3671875 3.86292613636364  17.2796474358974 3.81818181818182  17.1730769230769 3.81818181818182  L 13.5192307692308 3.81818181818182  C 13.4126602564103 3.81818181818182  13.3251201923077 3.86292613636364  13.2566105769231 3.95241477272727  C 13.1881009615385 4.04190340909091  13.1538461538462 4.15625  13.1538461538462 4.29545454545455  L 13.1538461538462 7.15909090909091  C 13.1538461538462 7.29829545454545  13.1881009615385 7.41264204545455  13.2566105769231 7.50213068181818  C 13.3251201923077 7.59161931818182  13.4126602564103 7.63636363636364  13.5192307692308 7.63636363636364  L 17.1730769230769 7.63636363636364  C 17.2796474358974 7.63636363636364  17.3671875 7.59161931818182  17.4356971153846 7.50213068181818  Z M 18.4633413461538 0.700994318181817  C 18.8211137820513 1.16832386363636  19 1.73011363636364  19 2.38636363636364  L 19 18.6136363636364  C 19 19.2698863636364  18.8211137820513 19.8316761363636  18.4633413461538 20.2990056818182  C 18.1055689102564 20.7663352272727  17.6754807692308 21  17.1730769230769 21  L 1.82692307692308 21  C 1.32451923076923 21  0.89443108974359 20.7663352272727  0.536658653846154 20.2990056818182  C 0.178886217948718 19.8316761363636  0 19.2698863636364  0 18.6136363636364  L 0 2.38636363636364  C 0 1.73011363636364  0.178886217948718 1.16832386363636  0.536658653846154 0.700994318181817  C 0.89443108974359 0.23366477272727  1.32451923076923 0  1.82692307692308 0  L 17.1730769230769 0  C 17.6754807692308 0  18.1055689102564 0.23366477272727  18.4633413461538 0.700994318181817  Z " fill-rule="nonzero" fill="#f59a23" stroke="none" fill-opacity="0.996078431372549" transform="matrix(1 0 0 1 414 374 )" />
  </g>
</svg>