<?xml version="1.0" encoding="utf-8"?>
<svg version="1.1" xmlns:xlink="http://www.w3.org/1999/xlink" width="23px" height="21px" xmlns="http://www.w3.org/2000/svg">
  <g transform="matrix(1 0 0 1 -495 -374 )">
    <path d="M 19.1966325917017 11.5291193181818  C 19.3810382842253 11.6086647727273  19.4732411304871 11.7528409090909  19.4732411304871 11.9616477272727  L 19.4732411304871 16.7045454545455  C 19.4732411304871 17.8877840909091  19.0836841050311 18.8995028409091  18.3045700541191 19.7397017045455  C 17.5254560032071 20.5799005681818  16.5872920424935 21  15.4900781719784 21  L 3.98316295850872 21  C 2.88594908799359 21  1.94778512728002 20.5799005681818  1.16867107636801 19.7397017045455  C 0.389557025456003 18.8995028409091  0 17.8877840909091  0 16.7045454545455  L 0 4.29545454545455  C 0 3.11221590909091  0.389557025456003 2.10049715909091  1.16867107636801 1.26029829545455  C 1.94778512728002 0.42009943181818  2.88594908799359 0  3.98316295850872 0  L 15.4900781719784 0  C 16.0709561034275 0  16.6103427540589 0.124289772727272  17.1082381238725 0.372869318181817  C 17.2465423932652 0.44247159090909  17.3295249549008 0.556818181818181  17.3571858087793 0.71590909090909  C 17.3848466626578 0.884943181818181  17.34335538184 1.02911931818182  17.2327119663259 1.1484375  L 16.5550210463019 1.87926136363636  C 16.4628182000401 1.97869318181818  16.356784926839 2.02840909090909  16.2369212266987 2.02840909090909  C 16.2092603728202 2.02840909090909  16.1677690920024 2.01846590909091  16.1124473842453 1.99857954545455  C 15.9003808378433 1.93892045454545  15.6929244337543 1.90909090909091  15.4900781719784 2  L 3.98316295850872 2  C 3.374624173181 1.90909090909091  2.85367809180197 2.14275568181818  2.42032471437162 2.61008522727273  C 1.98697133694127 3.07741477272727  1.7702946482261 3.63920454545455  2 4.29545454545455  L 2 16.7045454545455  C 1.7702946482261 17.3607954545455  1.98697133694127 17.9225852272727  2.42032471437162 18.3899147727273  C 2.85367809180197 18.8572443181818  3.374624173181 19.0909090909091  3.98316295850872 19  L 15.4900781719784 19  C 16.0986169573061 19.0909090909091  16.6195630386851 18.8572443181818  17.0529164161155 18.3899147727273  C 17.4862697935458 17.9225852272727  17.702946482261 17.3607954545455  17.702946482261 16.7045454545455  L 17.702946482261 12.9161931818182  C 17.702946482261 12.7869318181818  17.7444377630788 12.6775568181818  17.8274203247144 12.5880681818182  L 18.7125676488274 11.6335227272727  C 18.8047704950892 11.5340909090909  18.9108037682902 11.484375  19.0306674684305 11.484375  C 19.0859891761876 11.484375  19.1413108839447 11.4992897727273  19.1966325917017 11.5291193181818  Z M 23 3.81818181818182  C 23 4.14630681818182  22.8893565844859 4.4296875  22.6680697534576 4.66832386363636  L 11.4101022248948 16.8089488636364  C 11.1888153938665 17.0475852272727  10.9260372820204 17.1669034090909  10.6217678893566 17.1669034090909  C 10.3174984966927 17.1669034090909  10.0547203848467 17.0475852272727  9.8334335538184 16.8089488636364  L 3.88634996993385 10.3955965909091  C 3.66506313890559 10.1569602272727  3.55441972339146 9.87357954545455  3.55441972339146 9.54545454545455  C 3.55441972339146 9.21732954545454  3.66506313890559 8.93394886363636  3.88634996993385 8.6953125  L 5.40769693325316 7.0546875  C 5.62898376428142 6.81605113636364  5.89176187612748 6.69673295454545  6.19603126879134 6.69673295454545  C 6.5003006614552 6.69673295454545  6.76307877330126 6.81605113636364  6.98436560432953 7.0546875  L 10.6217678893566 10.9772727272727  L 19.5700541190619 1.32741477272727  C 19.7913409500902 1.08877840909091  20.0541190619363 0.969460227272727  20.3583884546001 0.969460227272727  C 20.662657847264 0.969460227272727  20.92543595911 1.08877840909091  21.1467227901383 1.32741477272727  L 22.6680697534576 2.96803977272727  C 22.8893565844859 3.20667613636364  23 3.49005681818182  23 3.81818181818182  Z " fill-rule="nonzero" fill="#03bf9d" stroke="none" fill-opacity="0.992156862745098" transform="matrix(1 0 0 1 495 374 )" />
  </g>
</svg>