<?xml version="1.0" encoding="utf-8"?>
<svg version="1.1" xmlns:xlink="http://www.w3.org/1999/xlink" width="31px" height="30px" xmlns="http://www.w3.org/2000/svg">
  <g transform="matrix(1 0 0 1 -1568 -466 )">
    <path d="M 30.2693602693603 22.4242424242424  C 30.7564534231201 22.8956228956229  31 23.4680134680135  31 24.1414141414141  C 31 24.8148148148148  30.7564534231201 25.3872053872054  30.2693602693603 25.8585858585859  L 26.7205387205387 29.2929292929293  C 26.2334455667789 29.7643097643098  25.641975308642 30  24.9461279461279 30  C 24.2502805836139 30  23.658810325477 29.7643097643098  23.1717171717172 29.2929292929293  L 15.5 21.8686868686869  L 7.82828282828283 29.2929292929293  C 7.34118967452301 29.7643097643098  6.74971941638608 30  6.05387205387205 30  C 5.35802469135803 30  4.7665544332211 29.7643097643098  4.27946127946128 29.2929292929293  L 0.730639730639731 25.8585858585859  C 0.24354657687991 25.3872053872054  0 24.8148148148148  0 24.1414141414141  C 0 23.4680134680135  0.24354657687991 22.8956228956229  0.730639730639731 22.4242424242424  L 8.4023569023569 15  L 0.730639730639731 7.57575757575757  C 0.24354657687991 7.1043771043771  0 6.53198653198653  0 5.85858585858586  C 0 5.18518518518519  0.24354657687991 4.61279461279461  0.730639730639731 4.14141414141414  L 4.27946127946128 0.707070707070707  C 4.7665544332211 0.235690235690235  5.35802469135803 0  6.05387205387205 0  C 6.74971941638608 0  7.34118967452301 0.235690235690235  7.82828282828283 0.707070707070707  L 15.5 8.13131313131313  L 23.1717171717172 0.707070707070707  C 23.658810325477 0.235690235690235  24.2502805836139 0  24.9461279461279 0  C 25.641975308642 0  26.2334455667789 0.235690235690235  26.7205387205387 0.707070707070707  L 30.2693602693603 4.14141414141414  C 30.7564534231201 4.61279461279461  31 5.18518518518519  31 5.85858585858586  C 31 6.53198653198653  30.7564534231201 7.1043771043771  30.2693602693603 7.57575757575757  L 22.5976430976431 15  L 30.2693602693603 22.4242424242424  Z " fill-rule="nonzero" fill="#81d3f8" stroke="none" transform="matrix(1 0 0 1 1568 466 )" />
  </g>
</svg>