<?xml version="1.0" encoding="utf-8"?>
<svg version="1.1" xmlns:xlink="http://www.w3.org/1999/xlink" width="28px" height="28px" xmlns="http://www.w3.org/2000/svg">
  <g transform="matrix(1 0 0 1 -611 -396 )">
    <path d="M 4 24  L 4 18  L 0 18  L 0 28  L 10 28  L 10 24  L 4 24  Z M 0 0  L 0 10  L 4 10  L 4 4  L 10 4  L 10 0  L 0 0  Z M 24 18  L 24 24  L 18 24  L 18 28  L 28 28  L 28 18  L 24 18  Z M 28 0  L 18 0  L 18 4  L 24 4  L 24 10  L 28 10  L 28 0  Z " fill-rule="nonzero" fill="#000000" stroke="none" transform="matrix(1 0 0 1 611 396 )" />
  </g>
</svg>